<?xml version="1.0" standalone="no"?>
<!DOCTYPE svg PUBLIC "-//W3C//DTD SVG 20010904//EN"
 "http://www.w3.org/TR/2001/REC-SVG-20010904/DTD/svg10.dtd">
<svg version="1.0" xmlns="http://www.w3.org/2000/svg"
 width="128.000000pt" height="128.000000pt" viewBox="0 0 128.000000 128.000000"
 preserveAspectRatio="xMidYMid meet">
<metadata>
Created by potrace 1.11, written by Peter Selinger 2001-2013
</metadata>
<g transform="translate(0.000000,128.000000) scale(0.100000,-0.100000)"
fill="#000000" stroke="none">
<path d="M166 1097 l-30 -42 0 -457 -1 -457 23 -23 23 -23 439 -3 c284 -2 454
1 479 8 28 7 42 18 50 38 8 20 10 134 7 407 -6 458 -9 505 -43 557 l-26 38
-446 0 -446 -1 -29 -42z m714 -325 l95 -7 -85 -7 c-47 -5 -154 -8 -237 -8
l-153 0 0 -60 0 -60 -130 0 -130 0 0 -190 0 -190 73 0 c41 0 162 -3 270 -7
l197 -6 0 66 0 67 130 0 130 0 0 190 0 190 45 0 46 0 -3 -167 c-3 -141 -8
-183 -28 -258 l-25 -89 -75 -25 c-73 -25 -84 -26 -450 -31 l-375 -6 352 -2
c417 -2 544 8 580 46 l23 25 0 -57 0 -56 -490 0 -490 0 0 331 0 332 318 -7
c174 -4 360 -10 412 -14z m-250 -87 l0 -55 -55 0 -55 0 0 55 0 55 55 0 55 0 0
-55z m130 0 l0 -55 -55 0 -55 0 0 55 0 55 55 0 55 0 0 -55z m130 0 l0 -55 -55
0 -55 0 0 55 0 55 55 0 55 0 0 -55z m130 0 l0 -55 -55 0 -55 0 0 55 0 55 55 0
55 0 0 -55z m-520 -120 l0 -55 -55 0 -55 0 0 55 0 55 55 0 55 0 0 -55z m130
-2 l0 -53 -55 0 -55 0 0 53 0 52 55 0 55 0 0 -52z m-260 -3 l0 -50 -55 0 -55
0 0 50 0 50 55 0 55 0 0 -50z m520 0 l0 -50 -55 0 -55 0 0 50 0 50 55 0 55 0
0 -50z m130 0 l0 -50 -55 0 -55 0 0 50 0 50 55 0 55 0 0 -50z m-650 -120 l0
-50 -55 0 -55 0 0 50 0 50 55 0 55 0 0 -50z m130 -5 l0 -55 -55 0 -55 0 0 55
0 55 55 0 55 0 0 -55z m130 3 l0 -53 -55 -2 -55 -2 0 54 0 55 55 0 55 0 0 -52z
m130 3 l0 -49 -55 -4 -55 -3 0 53 0 52 55 0 55 0 0 -49z m130 -1 l0 -50 -55 0
-55 0 0 50 0 50 55 0 55 0 0 -50z m130 0 l0 -50 -55 0 -55 0 0 50 0 50 55 0
55 0 0 -50z m-650 -122 l0 -53 -55 0 -55 0 0 53 0 52 55 0 55 0 0 -52z m130
-3 l0 -55 -55 0 -55 0 0 55 0 55 55 0 55 0 0 -55z m130 0 l0 -55 -55 0 -55 0
0 55 0 55 55 0 55 0 0 -55z m130 0 l0 -55 -55 0 -55 0 0 55 0 55 55 0 55 0 0
-55z"/>
</g>
</svg>
